<?xml version="1.0" encoding="utf-8"?>
<!-- Generator: Adobe Illustrator 16.0.0, SVG Export Plug-In . SVG Version: 6.00 Build 0)  -->
<!DOCTYPE svg PUBLIC "-//W3C//DTD SVG 1.1//EN" "http://www.w3.org/Graphics/SVG/1.1/DTD/svg11.dtd">
<svg version="1.1" id="Capa_1" xmlns="http://www.w3.org/2000/svg" xmlns:xlink="http://www.w3.org/1999/xlink" x="0px" y="0px"
	 width="296.776px" height="81.207px" viewBox="0 0 296.776 81.207" enable-background="new 0 0 296.776 81.207"
	 xml:space="preserve">
<g>
	<defs>
		<rect id="SVGID_1_" y="0" width="296.776" height="81.206"/>
	</defs>
	<clipPath id="SVGID_2_">
		<use xlink:href="#SVGID_1_"  overflow="visible"/>
	</clipPath>
	<path clip-path="url(#SVGID_2_)" fill="#A0C5CE" d="M296.775,49.204C263.616,19.407,209.512,0,148.388,0S33.159,19.407,0,49.204
		C36.663,25.429,89.564,10.5,148.388,10.5C207.209,10.5,260.113,25.429,296.775,49.204"/>
	<path clip-path="url(#SVGID_2_)" fill="#4E4D4E" d="M236.085,39.774h-43.746v41.431h11.771v-9.607v-9.24V49.628h27.606
		c1.639,0,2.306,0.795,2.306,2.386v7.833c0,1.713-0.667,2.511-2.306,2.511h-15.91v9.24h20.279c7.16,0,9.646-2.999,9.646-10.159
		V49.137C245.731,43.08,243.245,39.774,236.085,39.774"/>
	<path clip-path="url(#SVGID_2_)" fill="#4E4D4E" d="M128.399,81.207c-7.159,0-9.769-3.305-9.769-10.955V53.239
		c0-8.997,4.066-13.463,12.804-13.463h40.53v9.851h-37.983c-2.427,0-3.516,1.225-3.516,3.796v15.841
		c0,1.775,0.665,2.634,2.242,2.634h28.579v-9.54h11.712v18.85H128.399z"/>
	<polygon clip-path="url(#SVGID_2_)" fill="#4E4D4E" points="82.292,39.706 73.289,39.706 64.285,39.706 41.708,81.137 
		52.41,81.137 72.352,81.137 72.352,71.897 61.191,71.897 73.27,49.264 73.265,49.252 73.277,49.252 73.27,49.264 73.289,49.299 
		73.307,49.264 73.302,49.252 73.312,49.252 73.307,49.264 90.318,81.137 104.869,81.137 	"/>
</g>
</svg>
